# xmcd CD database file
#
# Track frame offsets:
#	150
#	24143
#	42438
#	54803
#
# Disc length: 887 seconds
#
# Revision: 0
# Processed by: cddbd v1.5.1PL2 Copyright (c) Steve Scherf et al.
# Submitted via: CDex 1.51
#
DISCID=22037504
DTITLE=サンタラ - Joy&Pain
DYEAR=2005
DGENRE=Pop
TTITLE0=Joy&Pain
TTITLE1=好き
TTITLE2=My name is Boogie
TTITLE3=君に届かないブルース
EXTD=YEAR: 2005
EXTT0=
EXTT1=
EXTT2=
EXTT3=
PLAYORDER=
